<mxfile host="app.diagrams.net" agent="Mozilla/5.0 (Macintosh; Intel Mac OS X 10_15_7) AppleWebKit/605.1.15 (KHTML, like Gecko) Version/17.6 Safari/605.1.15" version="24.8.3">
  <diagram name="Seite-1" id="DuhwKdCDMSvqWucxcNel">
    <mxGraphModel dx="1193" dy="809" grid="1" gridSize="10" guides="1" tooltips="1" connect="1" arrows="1" fold="1" page="1" pageScale="1" pageWidth="827" pageHeight="1169" math="0" shadow="0">
      <root>
        <mxCell id="0" />
        <mxCell id="1" parent="0" />
        <mxCell id="tOoacu0qx8_Vcf6C2cur-1" value="" style="verticalLabelPosition=bottom;verticalAlign=top;html=1;shape=mxgraph.basic.rect;fillColor2=none;strokeWidth=1;size=20;indent=5;" vertex="1" parent="1">
          <mxGeometry x="80" y="80" width="560" height="450" as="geometry" />
        </mxCell>
        <mxCell id="tOoacu0qx8_Vcf6C2cur-3" value="" style="verticalLabelPosition=bottom;verticalAlign=top;html=1;shape=mxgraph.basic.patternFillRect;fillStyle=diag;step=5;fillStrokeWidth=0.2;fillStrokeColor=#dddddd;" vertex="1" parent="1">
          <mxGeometry x="80" y="80" width="560" height="70" as="geometry" />
        </mxCell>
        <mxCell id="tOoacu0qx8_Vcf6C2cur-4" value="Logo" style="whiteSpace=wrap;html=1;shape=mxgraph.basic.octagon2;align=center;verticalAlign=middle;dx=15;" vertex="1" parent="1">
          <mxGeometry x="90" y="92.5" width="40" height="40" as="geometry" />
        </mxCell>
        <mxCell id="tOoacu0qx8_Vcf6C2cur-5" value="Search" style="labelPosition=center;verticalLabelPosition=middle;align=center;html=1;shape=mxgraph.basic.button;dx=10;whiteSpace=wrap;" vertex="1" parent="1">
          <mxGeometry x="150" y="95" width="70" height="35" as="geometry" />
        </mxCell>
        <mxCell id="tOoacu0qx8_Vcf6C2cur-8" value="Friends" style="labelPosition=center;verticalLabelPosition=middle;align=center;html=1;shape=mxgraph.basic.button;dx=10;whiteSpace=wrap;" vertex="1" parent="1">
          <mxGeometry x="250" y="95" width="80" height="35" as="geometry" />
        </mxCell>
        <mxCell id="tOoacu0qx8_Vcf6C2cur-12" value="Profile&lt;div&gt;&lt;br&gt;&lt;/div&gt;" style="verticalLabelPosition=middle;verticalAlign=middle;html=1;shape=mxgraph.basic.polygon;polyCoords=[[0.25,0],[0.75,0],[1,0.25],[1,0.75],[0.75,1],[0.25,1],[0,0.75],[0,0.25]];polyline=0;labelPosition=center;align=center;" vertex="1" parent="1">
          <mxGeometry x="570" y="87.5" width="50" height="50" as="geometry" />
        </mxCell>
        <mxCell id="tOoacu0qx8_Vcf6C2cur-18" value="&lt;b&gt;&lt;font style=&quot;font-size: 22px;&quot;&gt;Display Fav/Dashboard&lt;/font&gt;&lt;/b&gt;" style="text;html=1;align=center;verticalAlign=middle;whiteSpace=wrap;rounded=0;" vertex="1" parent="1">
          <mxGeometry x="82.5" y="170" width="560" height="40" as="geometry" />
        </mxCell>
        <mxCell id="tOoacu0qx8_Vcf6C2cur-19" value="" style="rounded=0;whiteSpace=wrap;html=1;" vertex="1" parent="1">
          <mxGeometry x="130" y="250" width="465" height="240" as="geometry" />
        </mxCell>
        <mxCell id="tOoacu0qx8_Vcf6C2cur-20" value="Dashboard" style="swimlane;fontStyle=0;childLayout=stackLayout;horizontal=1;startSize=30;horizontalStack=0;resizeParent=1;resizeParentMax=0;resizeLast=0;collapsible=1;marginBottom=0;whiteSpace=wrap;html=1;" vertex="1" parent="1">
          <mxGeometry x="130" y="250" width="465" height="120" as="geometry" />
        </mxCell>
        <mxCell id="tOoacu0qx8_Vcf6C2cur-21" value="Stock1" style="text;strokeColor=none;fillColor=none;align=left;verticalAlign=middle;spacingLeft=4;spacingRight=4;overflow=hidden;points=[[0,0.5],[1,0.5]];portConstraint=eastwest;rotatable=0;whiteSpace=wrap;html=1;" vertex="1" parent="tOoacu0qx8_Vcf6C2cur-20">
          <mxGeometry y="30" width="465" height="30" as="geometry" />
        </mxCell>
        <mxCell id="tOoacu0qx8_Vcf6C2cur-22" value="Stock 2" style="text;strokeColor=none;fillColor=none;align=left;verticalAlign=middle;spacingLeft=4;spacingRight=4;overflow=hidden;points=[[0,0.5],[1,0.5]];portConstraint=eastwest;rotatable=0;whiteSpace=wrap;html=1;" vertex="1" parent="tOoacu0qx8_Vcf6C2cur-20">
          <mxGeometry y="60" width="465" height="30" as="geometry" />
        </mxCell>
        <mxCell id="tOoacu0qx8_Vcf6C2cur-23" value="Stock 3" style="text;strokeColor=none;fillColor=none;align=left;verticalAlign=middle;spacingLeft=4;spacingRight=4;overflow=hidden;points=[[0,0.5],[1,0.5]];portConstraint=eastwest;rotatable=0;whiteSpace=wrap;html=1;" vertex="1" parent="tOoacu0qx8_Vcf6C2cur-20">
          <mxGeometry y="90" width="465" height="30" as="geometry" />
        </mxCell>
        <mxCell id="tOoacu0qx8_Vcf6C2cur-24" value="Overall Market" style="ellipse;whiteSpace=wrap;html=1;" vertex="1" parent="1">
          <mxGeometry x="100" y="160" width="120" height="80" as="geometry" />
        </mxCell>
        <mxCell id="tOoacu0qx8_Vcf6C2cur-25" value="Overall Market" style="ellipse;whiteSpace=wrap;html=1;" vertex="1" parent="1">
          <mxGeometry x="503" y="150" width="120" height="80" as="geometry" />
        </mxCell>
        <mxCell id="tOoacu0qx8_Vcf6C2cur-46" value="" style="verticalLabelPosition=bottom;verticalAlign=top;html=1;shape=mxgraph.basic.rect;fillColor2=none;strokeWidth=1;size=20;indent=5;" vertex="1" parent="1">
          <mxGeometry x="110" y="1370" width="560" height="440" as="geometry" />
        </mxCell>
        <mxCell id="tOoacu0qx8_Vcf6C2cur-47" value="" style="verticalLabelPosition=bottom;verticalAlign=top;html=1;shape=mxgraph.basic.patternFillRect;fillStyle=diag;step=5;fillStrokeWidth=0.2;fillStrokeColor=#dddddd;" vertex="1" parent="1">
          <mxGeometry x="110" y="1370" width="560" height="70" as="geometry" />
        </mxCell>
        <mxCell id="tOoacu0qx8_Vcf6C2cur-48" value="Logo" style="whiteSpace=wrap;html=1;shape=mxgraph.basic.octagon2;align=center;verticalAlign=middle;dx=15;" vertex="1" parent="1">
          <mxGeometry x="120" y="1382.5" width="40" height="40" as="geometry" />
        </mxCell>
        <mxCell id="tOoacu0qx8_Vcf6C2cur-49" value="Dashboard" style="labelPosition=center;verticalLabelPosition=middle;align=center;html=1;shape=mxgraph.basic.button;dx=10;whiteSpace=wrap;" vertex="1" parent="1">
          <mxGeometry x="170" y="1385" width="70" height="35" as="geometry" />
        </mxCell>
        <mxCell id="tOoacu0qx8_Vcf6C2cur-51" value="Friends" style="labelPosition=center;verticalLabelPosition=middle;align=center;html=1;shape=mxgraph.basic.button;dx=10;whiteSpace=wrap;" vertex="1" parent="1">
          <mxGeometry x="260" y="1385" width="80" height="35" as="geometry" />
        </mxCell>
        <mxCell id="tOoacu0qx8_Vcf6C2cur-52" value="Profile&lt;div&gt;&lt;br&gt;&lt;/div&gt;" style="verticalLabelPosition=middle;verticalAlign=middle;html=1;shape=mxgraph.basic.polygon;polyCoords=[[0.25,0],[0.75,0],[1,0.25],[1,0.75],[0.75,1],[0.25,1],[0,0.75],[0,0.25]];polyline=0;labelPosition=center;align=center;" vertex="1" parent="1">
          <mxGeometry x="600" y="1377.5" width="50" height="50" as="geometry" />
        </mxCell>
        <mxCell id="tOoacu0qx8_Vcf6C2cur-53" value="&lt;b&gt;&lt;font style=&quot;font-size: 19px;&quot;&gt;Search&lt;/font&gt;&lt;/b&gt;" style="text;html=1;align=center;verticalAlign=middle;whiteSpace=wrap;rounded=0;" vertex="1" parent="1">
          <mxGeometry x="110" y="1470" width="560" height="30" as="geometry" />
        </mxCell>
        <mxCell id="tOoacu0qx8_Vcf6C2cur-54" value="" style="rounded=1;whiteSpace=wrap;html=1;" vertex="1" parent="1">
          <mxGeometry x="160" y="1520" width="460" height="30" as="geometry" />
        </mxCell>
        <mxCell id="tOoacu0qx8_Vcf6C2cur-55" value="" style="rounded=1;whiteSpace=wrap;html=1;" vertex="1" parent="1">
          <mxGeometry x="160" y="1620" width="460" height="160" as="geometry" />
        </mxCell>
        <mxCell id="tOoacu0qx8_Vcf6C2cur-56" value="&lt;font style=&quot;font-size: 14px;&quot;&gt;&lt;b&gt;Popular&lt;/b&gt;&lt;/font&gt;" style="text;html=1;align=center;verticalAlign=middle;whiteSpace=wrap;rounded=0;" vertex="1" parent="1">
          <mxGeometry x="280" y="1590" width="210" height="30" as="geometry" />
        </mxCell>
        <mxCell id="tOoacu0qx8_Vcf6C2cur-57" value="" style="verticalLabelPosition=bottom;verticalAlign=top;html=1;shape=mxgraph.basic.rect;fillColor2=none;strokeWidth=1;size=20;indent=5;" vertex="1" parent="1">
          <mxGeometry x="920" y="100" width="560" height="440" as="geometry" />
        </mxCell>
        <mxCell id="tOoacu0qx8_Vcf6C2cur-58" value="" style="verticalLabelPosition=bottom;verticalAlign=top;html=1;shape=mxgraph.basic.patternFillRect;fillStyle=diag;step=5;fillStrokeWidth=0.2;fillStrokeColor=#dddddd;" vertex="1" parent="1">
          <mxGeometry x="920" y="100" width="560" height="70" as="geometry" />
        </mxCell>
        <mxCell id="tOoacu0qx8_Vcf6C2cur-59" value="Logo" style="whiteSpace=wrap;html=1;shape=mxgraph.basic.octagon2;align=center;verticalAlign=middle;dx=15;" vertex="1" parent="1">
          <mxGeometry x="930" y="112.5" width="40" height="40" as="geometry" />
        </mxCell>
        <mxCell id="tOoacu0qx8_Vcf6C2cur-60" value="Dashboard" style="labelPosition=center;verticalLabelPosition=middle;align=center;html=1;shape=mxgraph.basic.button;dx=10;whiteSpace=wrap;" vertex="1" parent="1">
          <mxGeometry x="985" y="115" width="70" height="35" as="geometry" />
        </mxCell>
        <mxCell id="tOoacu0qx8_Vcf6C2cur-62" value="Search" style="labelPosition=center;verticalLabelPosition=middle;align=center;html=1;shape=mxgraph.basic.button;dx=10;whiteSpace=wrap;" vertex="1" parent="1">
          <mxGeometry x="1105" y="115" width="80" height="35" as="geometry" />
        </mxCell>
        <mxCell id="tOoacu0qx8_Vcf6C2cur-63" value="Profile&lt;div&gt;&lt;br&gt;&lt;/div&gt;" style="verticalLabelPosition=middle;verticalAlign=middle;html=1;shape=mxgraph.basic.polygon;polyCoords=[[0.25,0],[0.75,0],[1,0.25],[1,0.75],[0.75,1],[0.25,1],[0,0.75],[0,0.25]];polyline=0;labelPosition=center;align=center;" vertex="1" parent="1">
          <mxGeometry x="1410" y="107.5" width="50" height="50" as="geometry" />
        </mxCell>
        <mxCell id="tOoacu0qx8_Vcf6C2cur-64" value="&lt;span style=&quot;font-size: 19px;&quot;&gt;&lt;b&gt;Friends&lt;/b&gt;&lt;/span&gt;" style="text;html=1;align=center;verticalAlign=middle;whiteSpace=wrap;rounded=0;" vertex="1" parent="1">
          <mxGeometry x="950" y="210" width="135" height="30" as="geometry" />
        </mxCell>
        <mxCell id="tOoacu0qx8_Vcf6C2cur-65" value="" style="rounded=1;whiteSpace=wrap;html=1;" vertex="1" parent="1">
          <mxGeometry x="970" y="250" width="95" height="250" as="geometry" />
        </mxCell>
        <mxCell id="tOoacu0qx8_Vcf6C2cur-68" value="&lt;span style=&quot;font-size: 19px;&quot;&gt;&lt;b&gt;Chat&lt;/b&gt;&lt;/span&gt;" style="text;html=1;align=center;verticalAlign=middle;whiteSpace=wrap;rounded=0;" vertex="1" parent="1">
          <mxGeometry x="1195" y="210" width="135" height="30" as="geometry" />
        </mxCell>
        <mxCell id="tOoacu0qx8_Vcf6C2cur-69" value="" style="rounded=0;whiteSpace=wrap;html=1;" vertex="1" parent="1">
          <mxGeometry x="1135" y="250" width="290" height="250" as="geometry" />
        </mxCell>
        <mxCell id="tOoacu0qx8_Vcf6C2cur-70" value="Dashboard Page" style="text;html=1;align=center;verticalAlign=middle;whiteSpace=wrap;rounded=0;" vertex="1" parent="1">
          <mxGeometry x="80" y="30" width="570" height="30" as="geometry" />
        </mxCell>
        <mxCell id="tOoacu0qx8_Vcf6C2cur-71" value="&lt;b&gt;&lt;font style=&quot;font-size: 20px;&quot;&gt;Search Page&lt;/font&gt;&lt;/b&gt;" style="text;html=1;align=center;verticalAlign=middle;whiteSpace=wrap;rounded=0;" vertex="1" parent="1">
          <mxGeometry x="325" y="1330" width="340" height="30" as="geometry" />
        </mxCell>
        <mxCell id="tOoacu0qx8_Vcf6C2cur-72" value="Chat" style="text;html=1;align=center;verticalAlign=middle;whiteSpace=wrap;rounded=0;" vertex="1" parent="1">
          <mxGeometry x="955" y="50" width="510" height="30" as="geometry" />
        </mxCell>
        <mxCell id="tOoacu0qx8_Vcf6C2cur-73" value="" style="curved=1;endArrow=classic;html=1;rounded=0;entryX=0.478;entryY=-0.056;entryDx=0;entryDy=0;entryPerimeter=0;" edge="1" parent="1" source="tOoacu0qx8_Vcf6C2cur-23" target="tOoacu0qx8_Vcf6C2cur-76">
          <mxGeometry width="50" height="50" relative="1" as="geometry">
            <mxPoint x="300" y="600" as="sourcePoint" />
            <mxPoint x="350" y="690" as="targetPoint" />
            <Array as="points">
              <mxPoint x="350" y="570" />
              <mxPoint x="340" y="590" />
              <mxPoint x="340" y="610" />
              <mxPoint x="340" y="630" />
              <mxPoint x="340" y="670" />
            </Array>
          </mxGeometry>
        </mxCell>
        <mxCell id="tOoacu0qx8_Vcf6C2cur-74" value="" style="rounded=0;whiteSpace=wrap;html=1;" vertex="1" parent="1">
          <mxGeometry x="83" y="710" width="557" height="370" as="geometry" />
        </mxCell>
        <mxCell id="tOoacu0qx8_Vcf6C2cur-75" value="" style="verticalLabelPosition=bottom;verticalAlign=top;html=1;shape=mxgraph.basic.rect;fillColor2=none;strokeWidth=1;size=20;indent=5;" vertex="1" parent="1">
          <mxGeometry x="83" y="710" width="560" height="440" as="geometry" />
        </mxCell>
        <mxCell id="tOoacu0qx8_Vcf6C2cur-76" value="" style="verticalLabelPosition=bottom;verticalAlign=top;html=1;shape=mxgraph.basic.patternFillRect;fillStyle=diag;step=5;fillStrokeWidth=0.2;fillStrokeColor=#dddddd;" vertex="1" parent="1">
          <mxGeometry x="83" y="710" width="560" height="70" as="geometry" />
        </mxCell>
        <mxCell id="tOoacu0qx8_Vcf6C2cur-77" value="Logo" style="whiteSpace=wrap;html=1;shape=mxgraph.basic.octagon2;align=center;verticalAlign=middle;dx=15;" vertex="1" parent="1">
          <mxGeometry x="93" y="722.5" width="40" height="40" as="geometry" />
        </mxCell>
        <mxCell id="tOoacu0qx8_Vcf6C2cur-80" value="Profile&lt;div&gt;&lt;br&gt;&lt;/div&gt;" style="verticalLabelPosition=middle;verticalAlign=middle;html=1;shape=mxgraph.basic.polygon;polyCoords=[[0.25,0],[0.75,0],[1,0.25],[1,0.75],[0.75,1],[0.25,1],[0,0.75],[0,0.25]];polyline=0;labelPosition=center;align=center;" vertex="1" parent="1">
          <mxGeometry x="573" y="717.5" width="50" height="50" as="geometry" />
        </mxCell>
        <mxCell id="tOoacu0qx8_Vcf6C2cur-81" value="&lt;b&gt;&lt;font style=&quot;font-size: 22px;&quot;&gt;Stock View/Display Graph&lt;/font&gt;&lt;/b&gt;" style="text;html=1;align=center;verticalAlign=middle;whiteSpace=wrap;rounded=0;" vertex="1" parent="1">
          <mxGeometry x="81.5" y="800" width="560" height="40" as="geometry" />
        </mxCell>
        <mxCell id="tOoacu0qx8_Vcf6C2cur-89" value="Graph&lt;div&gt;&lt;br&gt;&lt;/div&gt;" style="shape=ext;double=1;rounded=0;whiteSpace=wrap;html=1;" vertex="1" parent="1">
          <mxGeometry x="145" y="860" width="435" height="230" as="geometry" />
        </mxCell>
        <mxCell id="tOoacu0qx8_Vcf6C2cur-90" value="" style="verticalLabelPosition=bottom;verticalAlign=top;html=1;shape=mxgraph.basic.star" vertex="1" parent="1">
          <mxGeometry x="510" y="805" width="30" height="30" as="geometry" />
        </mxCell>
        <mxCell id="tOoacu0qx8_Vcf6C2cur-91" value="" style="shape=singleArrow;direction=west;whiteSpace=wrap;html=1;" vertex="1" parent="1">
          <mxGeometry x="105" y="805" width="40" height="30" as="geometry" />
        </mxCell>
        <mxCell id="tOoacu0qx8_Vcf6C2cur-92" value="" style="edgeStyle=segmentEdgeStyle;endArrow=classic;html=1;curved=0;rounded=0;endSize=8;startSize=8;entryX=0.529;entryY=1.007;entryDx=0;entryDy=0;entryPerimeter=0;" edge="1" parent="1" target="tOoacu0qx8_Vcf6C2cur-75">
          <mxGeometry width="50" height="50" relative="1" as="geometry">
            <mxPoint x="410" y="1540" as="sourcePoint" />
            <mxPoint x="460" y="1490" as="targetPoint" />
          </mxGeometry>
        </mxCell>
        <mxCell id="tOoacu0qx8_Vcf6C2cur-93" value="Stock Displayer" style="text;strokeColor=none;fillColor=none;html=1;fontSize=24;fontStyle=1;verticalAlign=middle;align=center;" vertex="1" parent="1">
          <mxGeometry x="430" y="660" width="100" height="40" as="geometry" />
        </mxCell>
        <mxCell id="tOoacu0qx8_Vcf6C2cur-95" value="FrontEnd" style="text;strokeColor=none;fillColor=none;html=1;fontSize=24;fontStyle=1;verticalAlign=middle;align=center;" vertex="1" parent="1">
          <mxGeometry x="1017.5" y="600" width="100" height="40" as="geometry" />
        </mxCell>
        <mxCell id="tOoacu0qx8_Vcf6C2cur-97" value="&lt;p style=&quot;margin:0px;margin-top:6px;text-align:center;&quot;&gt;&lt;b&gt;Dashboard&lt;/b&gt;&lt;/p&gt;&lt;hr size=&quot;1&quot; style=&quot;border-style:solid;&quot;&gt;&lt;p style=&quot;margin:0px;margin-left:8px;&quot;&gt;+ Portfolio Summary&lt;br&gt;+ Market Overview&lt;/p&gt;" style="align=left;overflow=fill;html=1;dropTarget=0;whiteSpace=wrap;" vertex="1" parent="1">
          <mxGeometry x="970" y="650" width="225" height="97" as="geometry" />
        </mxCell>
        <mxCell id="tOoacu0qx8_Vcf6C2cur-98" value="" style="shape=component;jettyWidth=8;jettyHeight=4;" vertex="1" parent="tOoacu0qx8_Vcf6C2cur-97">
          <mxGeometry x="1" width="20" height="20" relative="1" as="geometry">
            <mxPoint x="-24" y="4" as="offset" />
          </mxGeometry>
        </mxCell>
        <mxCell id="tOoacu0qx8_Vcf6C2cur-99" value="&lt;p style=&quot;margin:0px;margin-top:6px;text-align:center;&quot;&gt;&lt;b&gt;Search&lt;/b&gt;&lt;/p&gt;&lt;hr size=&quot;1&quot; style=&quot;border-style:solid;&quot;&gt;&lt;p style=&quot;margin:0px;margin-left:8px;&quot;&gt;+ SearchBar: Type&lt;br&gt;+ Result: Type&lt;/p&gt;" style="align=left;overflow=fill;html=1;dropTarget=0;whiteSpace=wrap;" vertex="1" parent="1">
          <mxGeometry x="970" y="788" width="225" height="90" as="geometry" />
        </mxCell>
        <mxCell id="tOoacu0qx8_Vcf6C2cur-100" value="" style="shape=component;jettyWidth=8;jettyHeight=4;" vertex="1" parent="tOoacu0qx8_Vcf6C2cur-99">
          <mxGeometry x="1" width="20" height="20" relative="1" as="geometry">
            <mxPoint x="-24" y="4" as="offset" />
          </mxGeometry>
        </mxCell>
        <mxCell id="tOoacu0qx8_Vcf6C2cur-101" value="&lt;p style=&quot;margin:0px;margin-top:6px;text-align:center;&quot;&gt;&lt;b&gt;Stock Display&lt;/b&gt;&lt;/p&gt;&lt;hr size=&quot;1&quot; style=&quot;border-style:solid;&quot;&gt;&lt;p style=&quot;margin:0px;margin-left:8px;&quot;&gt;+ CharInfo: Type&lt;br&gt;+ AddPorfolio: Type&lt;/p&gt;" style="align=left;overflow=fill;html=1;dropTarget=0;whiteSpace=wrap;" vertex="1" parent="1">
          <mxGeometry x="970" y="918" width="230" height="90" as="geometry" />
        </mxCell>
        <mxCell id="tOoacu0qx8_Vcf6C2cur-102" value="" style="shape=component;jettyWidth=8;jettyHeight=4;" vertex="1" parent="tOoacu0qx8_Vcf6C2cur-101">
          <mxGeometry x="1" width="20" height="20" relative="1" as="geometry">
            <mxPoint x="-24" y="4" as="offset" />
          </mxGeometry>
        </mxCell>
        <mxCell id="tOoacu0qx8_Vcf6C2cur-165" style="edgeStyle=orthogonalEdgeStyle;rounded=0;orthogonalLoop=1;jettySize=auto;html=1;exitX=1;exitY=0.25;exitDx=0;exitDy=0;entryX=0;entryY=1;entryDx=0;entryDy=0;" edge="1" parent="1" source="tOoacu0qx8_Vcf6C2cur-103" target="tOoacu0qx8_Vcf6C2cur-107">
          <mxGeometry relative="1" as="geometry" />
        </mxCell>
        <mxCell id="tOoacu0qx8_Vcf6C2cur-103" value="&lt;p style=&quot;margin:0px;margin-top:6px;text-align:center;&quot;&gt;&lt;b&gt;Friends&lt;/b&gt;&lt;/p&gt;&lt;hr size=&quot;1&quot; style=&quot;border-style:solid;&quot;&gt;&lt;p style=&quot;margin:0px;margin-left:8px;&quot;&gt;+ addFriend: Type&lt;br&gt;+ removeFriend: Type&lt;/p&gt;&lt;p style=&quot;margin:0px;margin-left:8px;&quot;&gt;+ sendMessage: Type&lt;br&gt;&lt;/p&gt;&lt;p style=&quot;margin:0px;margin-left:8px;&quot;&gt;+ receiveMessages: Type&lt;br&gt;&lt;/p&gt;" style="align=left;overflow=fill;html=1;dropTarget=0;whiteSpace=wrap;" vertex="1" parent="1">
          <mxGeometry x="985" y="1038" width="230" height="90" as="geometry" />
        </mxCell>
        <mxCell id="tOoacu0qx8_Vcf6C2cur-104" value="" style="shape=component;jettyWidth=8;jettyHeight=4;" vertex="1" parent="tOoacu0qx8_Vcf6C2cur-103">
          <mxGeometry x="1" width="20" height="20" relative="1" as="geometry">
            <mxPoint x="-24" y="4" as="offset" />
          </mxGeometry>
        </mxCell>
        <mxCell id="tOoacu0qx8_Vcf6C2cur-106" value="BackEnd" style="text;strokeColor=none;fillColor=none;html=1;fontSize=24;fontStyle=1;verticalAlign=middle;align=center;" vertex="1" parent="1">
          <mxGeometry x="1425" y="670" width="100" height="40" as="geometry" />
        </mxCell>
        <mxCell id="tOoacu0qx8_Vcf6C2cur-107" value="&lt;p style=&quot;margin:0px;margin-top:6px;text-align:center;&quot;&gt;&lt;b&gt;BackEnd&lt;/b&gt;&lt;/p&gt;&lt;hr size=&quot;1&quot; style=&quot;border-style:solid;&quot;&gt;&lt;p style=&quot;margin:0px;margin-left:8px;&quot;&gt;+ AddStock: Type&lt;br&gt;+ AddUser: Type&lt;/p&gt;&lt;p style=&quot;margin:0px;margin-left:8px;&quot;&gt;+ getStockInfo;&lt;/p&gt;&lt;p style=&quot;margin:0px;margin-left:8px;&quot;&gt;+ UpdateStockInfo&lt;/p&gt;&lt;p style=&quot;margin:0px;margin-left:8px;&quot;&gt;+ GetNews&lt;/p&gt;&lt;p style=&quot;margin:0px;margin-left:8px;&quot;&gt;+ addFavourite&lt;/p&gt;&lt;p style=&quot;margin:0px;margin-left:8px;&quot;&gt;+ authorize&lt;/p&gt;&lt;p style=&quot;margin:0px;margin-left:8px;&quot;&gt;+ logout&lt;/p&gt;" style="align=left;overflow=fill;html=1;dropTarget=0;whiteSpace=wrap;" vertex="1" parent="1">
          <mxGeometry x="1370" y="720" width="210" height="280" as="geometry" />
        </mxCell>
        <mxCell id="tOoacu0qx8_Vcf6C2cur-108" value="" style="shape=component;jettyWidth=8;jettyHeight=4;" vertex="1" parent="tOoacu0qx8_Vcf6C2cur-107">
          <mxGeometry x="1" width="20" height="20" relative="1" as="geometry">
            <mxPoint x="-24" y="4" as="offset" />
          </mxGeometry>
        </mxCell>
        <mxCell id="tOoacu0qx8_Vcf6C2cur-111" value="User" style="swimlane;fontStyle=1;align=center;verticalAlign=top;childLayout=stackLayout;horizontal=1;startSize=26;horizontalStack=0;resizeParent=1;resizeParentMax=0;resizeLast=0;collapsible=1;marginBottom=0;whiteSpace=wrap;html=1;" vertex="1" parent="1">
          <mxGeometry x="955" y="1310" width="195" height="214" as="geometry" />
        </mxCell>
        <mxCell id="tOoacu0qx8_Vcf6C2cur-112" value="+ id: int&lt;div&gt;- name: String&lt;br&gt;&lt;/div&gt;&lt;div&gt;- password: String&lt;br&gt;&lt;/div&gt;&lt;div&gt;- friends: List[String]&lt;br&gt;&lt;/div&gt;&lt;div&gt;- stockList: List[String]&lt;br&gt;&lt;/div&gt;&lt;div&gt;&lt;br&gt;&lt;/div&gt;" style="text;strokeColor=none;fillColor=none;align=left;verticalAlign=top;spacingLeft=4;spacingRight=4;overflow=hidden;rotatable=0;points=[[0,0.5],[1,0.5]];portConstraint=eastwest;whiteSpace=wrap;html=1;" vertex="1" parent="tOoacu0qx8_Vcf6C2cur-111">
          <mxGeometry y="26" width="195" height="84" as="geometry" />
        </mxCell>
        <mxCell id="tOoacu0qx8_Vcf6C2cur-113" value="" style="line;strokeWidth=1;fillColor=none;align=left;verticalAlign=middle;spacingTop=-1;spacingLeft=3;spacingRight=3;rotatable=0;labelPosition=right;points=[];portConstraint=eastwest;strokeColor=inherit;" vertex="1" parent="tOoacu0qx8_Vcf6C2cur-111">
          <mxGeometry y="110" width="195" height="40" as="geometry" />
        </mxCell>
        <mxCell id="tOoacu0qx8_Vcf6C2cur-114" value="+ addFriend(User friend): bool&lt;div&gt;+ removeFriend(User friend): bool&lt;/div&gt;&lt;div&gt;+ addStock(User friend): bool&lt;br&gt;&lt;/div&gt;" style="text;strokeColor=none;fillColor=none;align=left;verticalAlign=top;spacingLeft=4;spacingRight=4;overflow=hidden;rotatable=0;points=[[0,0.5],[1,0.5]];portConstraint=eastwest;whiteSpace=wrap;html=1;" vertex="1" parent="tOoacu0qx8_Vcf6C2cur-111">
          <mxGeometry y="150" width="195" height="64" as="geometry" />
        </mxCell>
        <mxCell id="tOoacu0qx8_Vcf6C2cur-115" value="Stock" style="swimlane;fontStyle=1;align=center;verticalAlign=top;childLayout=stackLayout;horizontal=1;startSize=26;horizontalStack=0;resizeParent=1;resizeParentMax=0;resizeLast=0;collapsible=1;marginBottom=0;whiteSpace=wrap;html=1;" vertex="1" parent="1">
          <mxGeometry x="1200" y="1310" width="160" height="154" as="geometry" />
        </mxCell>
        <mxCell id="tOoacu0qx8_Vcf6C2cur-116" value="&lt;span style=&quot;caret-color: rgb(0, 0, 0); color: rgb(0, 0, 0); font-family: Helvetica; font-size: 12px; font-style: normal; font-variant-caps: normal; font-weight: 400; letter-spacing: normal; orphans: auto; text-align: left; text-indent: 0px; text-transform: none; white-space: normal; widows: auto; word-spacing: 0px; -webkit-text-stroke-width: 0px; background-color: rgb(251, 251, 251); text-decoration: none; display: inline !important; float: none;&quot;&gt;+ name: type&lt;/span&gt;&lt;div&gt;+ ticker: type&lt;/div&gt;&lt;div&gt;+ currentPrice: type&lt;br&gt;&lt;/div&gt;&lt;div&gt;+ priceHistory: type&lt;br&gt;&lt;/div&gt;&lt;div&gt;+ name: type&lt;br&gt;&lt;/div&gt;" style="text;strokeColor=none;fillColor=none;align=left;verticalAlign=top;spacingLeft=4;spacingRight=4;overflow=hidden;rotatable=0;points=[[0,0.5],[1,0.5]];portConstraint=eastwest;whiteSpace=wrap;html=1;" vertex="1" parent="tOoacu0qx8_Vcf6C2cur-115">
          <mxGeometry y="26" width="160" height="94" as="geometry" />
        </mxCell>
        <mxCell id="tOoacu0qx8_Vcf6C2cur-117" value="" style="line;strokeWidth=1;fillColor=none;align=left;verticalAlign=middle;spacingTop=-1;spacingLeft=3;spacingRight=3;rotatable=0;labelPosition=right;points=[];portConstraint=eastwest;strokeColor=inherit;" vertex="1" parent="tOoacu0qx8_Vcf6C2cur-115">
          <mxGeometry y="120" width="160" height="8" as="geometry" />
        </mxCell>
        <mxCell id="tOoacu0qx8_Vcf6C2cur-118" value="+ method(type): type" style="text;strokeColor=none;fillColor=none;align=left;verticalAlign=top;spacingLeft=4;spacingRight=4;overflow=hidden;rotatable=0;points=[[0,0.5],[1,0.5]];portConstraint=eastwest;whiteSpace=wrap;html=1;" vertex="1" parent="tOoacu0qx8_Vcf6C2cur-115">
          <mxGeometry y="128" width="160" height="26" as="geometry" />
        </mxCell>
        <mxCell id="tOoacu0qx8_Vcf6C2cur-119" value="News" style="swimlane;fontStyle=1;align=center;verticalAlign=top;childLayout=stackLayout;horizontal=1;startSize=26;horizontalStack=0;resizeParent=1;resizeParentMax=0;resizeLast=0;collapsible=1;marginBottom=0;whiteSpace=wrap;html=1;" vertex="1" parent="1">
          <mxGeometry x="1420" y="1310" width="160" height="154" as="geometry" />
        </mxCell>
        <mxCell id="tOoacu0qx8_Vcf6C2cur-120" value="+ title: String&lt;div&gt;+: String&lt;br&gt;&lt;/div&gt;&lt;div&gt;title: String&lt;br&gt;&lt;/div&gt;" style="text;strokeColor=none;fillColor=none;align=left;verticalAlign=top;spacingLeft=4;spacingRight=4;overflow=hidden;rotatable=0;points=[[0,0.5],[1,0.5]];portConstraint=eastwest;whiteSpace=wrap;html=1;" vertex="1" parent="tOoacu0qx8_Vcf6C2cur-119">
          <mxGeometry y="26" width="160" height="94" as="geometry" />
        </mxCell>
        <mxCell id="tOoacu0qx8_Vcf6C2cur-121" value="" style="line;strokeWidth=1;fillColor=none;align=left;verticalAlign=middle;spacingTop=-1;spacingLeft=3;spacingRight=3;rotatable=0;labelPosition=right;points=[];portConstraint=eastwest;strokeColor=inherit;" vertex="1" parent="tOoacu0qx8_Vcf6C2cur-119">
          <mxGeometry y="120" width="160" height="8" as="geometry" />
        </mxCell>
        <mxCell id="tOoacu0qx8_Vcf6C2cur-122" value="+ method(type): type" style="text;strokeColor=none;fillColor=none;align=left;verticalAlign=top;spacingLeft=4;spacingRight=4;overflow=hidden;rotatable=0;points=[[0,0.5],[1,0.5]];portConstraint=eastwest;whiteSpace=wrap;html=1;" vertex="1" parent="tOoacu0qx8_Vcf6C2cur-119">
          <mxGeometry y="128" width="160" height="26" as="geometry" />
        </mxCell>
        <mxCell id="tOoacu0qx8_Vcf6C2cur-126" style="edgeStyle=orthogonalEdgeStyle;rounded=0;orthogonalLoop=1;jettySize=auto;html=1;entryX=0.5;entryY=1;entryDx=0;entryDy=0;" edge="1" parent="1" source="tOoacu0qx8_Vcf6C2cur-124" target="tOoacu0qx8_Vcf6C2cur-107">
          <mxGeometry relative="1" as="geometry" />
        </mxCell>
        <mxCell id="tOoacu0qx8_Vcf6C2cur-124" value="&lt;p style=&quot;margin:0px;margin-top:6px;text-align:center;&quot;&gt;&lt;b&gt;LoginField&lt;/b&gt;&lt;/p&gt;&lt;hr size=&quot;1&quot; style=&quot;border-style:solid;&quot;&gt;&lt;p style=&quot;margin:0px;margin-left:8px;&quot;&gt;+ loginUser: Type&lt;br&gt;+ createUser: Type&lt;/p&gt;&lt;p style=&quot;margin:0px;margin-left:8px;&quot;&gt;&lt;br&gt;&lt;/p&gt;&lt;p style=&quot;margin:0px;margin-left:8px;&quot;&gt;&lt;br&gt;&lt;/p&gt;" style="align=left;overflow=fill;html=1;dropTarget=0;whiteSpace=wrap;" vertex="1" parent="1">
          <mxGeometry x="1360" y="1120" width="230" height="70" as="geometry" />
        </mxCell>
        <mxCell id="tOoacu0qx8_Vcf6C2cur-125" value="" style="shape=component;jettyWidth=8;jettyHeight=4;" vertex="1" parent="tOoacu0qx8_Vcf6C2cur-124">
          <mxGeometry x="1" width="20" height="20" relative="1" as="geometry">
            <mxPoint x="-24" y="4" as="offset" />
          </mxGeometry>
        </mxCell>
        <mxCell id="tOoacu0qx8_Vcf6C2cur-127" value="POST AddUser&lt;div&gt;GET UserInfo&lt;/div&gt;" style="text;html=1;align=center;verticalAlign=middle;resizable=0;points=[];autosize=1;strokeColor=none;fillColor=none;" vertex="1" parent="1">
          <mxGeometry x="1465" y="1003" width="110" height="40" as="geometry" />
        </mxCell>
        <mxCell id="tOoacu0qx8_Vcf6C2cur-128" style="edgeStyle=orthogonalEdgeStyle;rounded=0;orthogonalLoop=1;jettySize=auto;html=1;exitX=0.25;exitY=1;exitDx=0;exitDy=0;entryX=0.297;entryY=-0.039;entryDx=0;entryDy=0;entryPerimeter=0;" edge="1" parent="1" source="tOoacu0qx8_Vcf6C2cur-107" target="tOoacu0qx8_Vcf6C2cur-124">
          <mxGeometry relative="1" as="geometry" />
        </mxCell>
        <mxCell id="tOoacu0qx8_Vcf6C2cur-129" value="response" style="text;html=1;align=center;verticalAlign=middle;resizable=0;points=[];autosize=1;strokeColor=none;fillColor=none;" vertex="1" parent="1">
          <mxGeometry x="1360" y="1080" width="70" height="30" as="geometry" />
        </mxCell>
        <mxCell id="tOoacu0qx8_Vcf6C2cur-146" value="UML" style="text;html=1;align=center;verticalAlign=middle;resizable=0;points=[];autosize=1;strokeColor=none;fillColor=none;" vertex="1" parent="1">
          <mxGeometry x="1195" y="1248" width="50" height="30" as="geometry" />
        </mxCell>
        <mxCell id="tOoacu0qx8_Vcf6C2cur-151" value="Classname" style="swimlane;fontStyle=1;align=center;verticalAlign=top;childLayout=stackLayout;horizontal=1;startSize=26;horizontalStack=0;resizeParent=1;resizeParentMax=0;resizeLast=0;collapsible=1;marginBottom=0;whiteSpace=wrap;html=1;" vertex="1" parent="1">
          <mxGeometry x="1200" y="1520" width="160" height="86" as="geometry" />
        </mxCell>
        <mxCell id="tOoacu0qx8_Vcf6C2cur-152" value="+ field: type" style="text;strokeColor=none;fillColor=none;align=left;verticalAlign=top;spacingLeft=4;spacingRight=4;overflow=hidden;rotatable=0;points=[[0,0.5],[1,0.5]];portConstraint=eastwest;whiteSpace=wrap;html=1;" vertex="1" parent="tOoacu0qx8_Vcf6C2cur-151">
          <mxGeometry y="26" width="160" height="26" as="geometry" />
        </mxCell>
        <mxCell id="tOoacu0qx8_Vcf6C2cur-153" value="" style="line;strokeWidth=1;fillColor=none;align=left;verticalAlign=middle;spacingTop=-1;spacingLeft=3;spacingRight=3;rotatable=0;labelPosition=right;points=[];portConstraint=eastwest;strokeColor=inherit;" vertex="1" parent="tOoacu0qx8_Vcf6C2cur-151">
          <mxGeometry y="52" width="160" height="8" as="geometry" />
        </mxCell>
        <mxCell id="tOoacu0qx8_Vcf6C2cur-154" value="+ method(type): type" style="text;strokeColor=none;fillColor=none;align=left;verticalAlign=top;spacingLeft=4;spacingRight=4;overflow=hidden;rotatable=0;points=[[0,0.5],[1,0.5]];portConstraint=eastwest;whiteSpace=wrap;html=1;" vertex="1" parent="tOoacu0qx8_Vcf6C2cur-151">
          <mxGeometry y="60" width="160" height="26" as="geometry" />
        </mxCell>
        <mxCell id="tOoacu0qx8_Vcf6C2cur-155" value="&lt;p style=&quot;margin:0px;margin-top:6px;text-align:center;&quot;&gt;&lt;b&gt;Component&lt;/b&gt;&lt;/p&gt;&lt;hr size=&quot;1&quot; style=&quot;border-style:solid;&quot;/&gt;&lt;p style=&quot;margin:0px;margin-left:8px;&quot;&gt;+ Attribute1: Type&lt;br/&gt;+ Attribute2: Type&lt;/p&gt;" style="align=left;overflow=fill;html=1;dropTarget=0;whiteSpace=wrap;" vertex="1" parent="1">
          <mxGeometry x="1700" y="720" width="180" height="250" as="geometry" />
        </mxCell>
        <mxCell id="tOoacu0qx8_Vcf6C2cur-156" value="" style="shape=component;jettyWidth=8;jettyHeight=4;" vertex="1" parent="tOoacu0qx8_Vcf6C2cur-155">
          <mxGeometry x="1" width="20" height="20" relative="1" as="geometry">
            <mxPoint x="-24" y="4" as="offset" />
          </mxGeometry>
        </mxCell>
        <mxCell id="tOoacu0qx8_Vcf6C2cur-158" value="Database" style="text;strokeColor=none;fillColor=none;html=1;fontSize=24;fontStyle=1;verticalAlign=middle;align=center;" vertex="1" parent="1">
          <mxGeometry x="1740" y="660" width="100" height="40" as="geometry" />
        </mxCell>
        <mxCell id="tOoacu0qx8_Vcf6C2cur-160" style="edgeStyle=orthogonalEdgeStyle;rounded=0;orthogonalLoop=1;jettySize=auto;html=1;exitX=1;exitY=0.5;exitDx=0;exitDy=0;entryX=-0.002;entryY=0.182;entryDx=0;entryDy=0;entryPerimeter=0;" edge="1" parent="1" source="tOoacu0qx8_Vcf6C2cur-97" target="tOoacu0qx8_Vcf6C2cur-107">
          <mxGeometry relative="1" as="geometry">
            <Array as="points">
              <mxPoint x="1283" y="699" />
              <mxPoint x="1283" y="710" />
              <mxPoint x="1370" y="710" />
            </Array>
          </mxGeometry>
        </mxCell>
        <mxCell id="tOoacu0qx8_Vcf6C2cur-161" value="GET stockInfo,&lt;div&gt;GET marketOverwiev&lt;/div&gt;" style="text;html=1;align=center;verticalAlign=middle;resizable=0;points=[];autosize=1;strokeColor=none;fillColor=none;" vertex="1" parent="1">
          <mxGeometry x="1200" y="660" width="140" height="40" as="geometry" />
        </mxCell>
        <mxCell id="tOoacu0qx8_Vcf6C2cur-163" value="GET stockInfo,&amp;nbsp;" style="text;html=1;align=center;verticalAlign=middle;resizable=0;points=[];autosize=1;strokeColor=none;fillColor=none;" vertex="1" parent="1">
          <mxGeometry x="1225" y="775" width="110" height="30" as="geometry" />
        </mxCell>
        <mxCell id="tOoacu0qx8_Vcf6C2cur-164" style="edgeStyle=orthogonalEdgeStyle;rounded=0;orthogonalLoop=1;jettySize=auto;html=1;exitX=1;exitY=0.25;exitDx=0;exitDy=0;" edge="1" parent="1" source="tOoacu0qx8_Vcf6C2cur-101">
          <mxGeometry relative="1" as="geometry">
            <mxPoint x="1368" y="940" as="targetPoint" />
            <Array as="points">
              <mxPoint x="1368" y="940" />
            </Array>
          </mxGeometry>
        </mxCell>
        <mxCell id="tOoacu0qx8_Vcf6C2cur-166" value="GET stockInfo,&lt;div&gt;POST Favorite&lt;/div&gt;" style="text;html=1;align=center;verticalAlign=middle;resizable=0;points=[];autosize=1;strokeColor=none;fillColor=none;" vertex="1" parent="1">
          <mxGeometry x="1200" y="883" width="100" height="40" as="geometry" />
        </mxCell>
        <mxCell id="tOoacu0qx8_Vcf6C2cur-167" value="GET friendInfo" style="text;html=1;align=center;verticalAlign=middle;resizable=0;points=[];autosize=1;strokeColor=none;fillColor=none;" vertex="1" parent="1">
          <mxGeometry x="1220" y="1028" width="100" height="30" as="geometry" />
        </mxCell>
        <mxCell id="tOoacu0qx8_Vcf6C2cur-169" style="edgeStyle=orthogonalEdgeStyle;rounded=0;orthogonalLoop=1;jettySize=auto;html=1;exitX=1;exitY=0.25;exitDx=0;exitDy=0;entryX=0.004;entryY=0.325;entryDx=0;entryDy=0;entryPerimeter=0;" edge="1" parent="1" source="tOoacu0qx8_Vcf6C2cur-99" target="tOoacu0qx8_Vcf6C2cur-107">
          <mxGeometry relative="1" as="geometry" />
        </mxCell>
      </root>
    </mxGraphModel>
  </diagram>
</mxfile>
